<mxfile host="" modified="2020-05-24T15:21:41.060Z" agent="5.0 (X11; Linux x86_64) AppleWebKit/537.36 (KHTML, like Gecko) Code/1.45.0 Chrome/78.0.3904.130 Electron/7.2.4 Safari/537.36" version="13.1.3" etag="lrwgP8mNOWNbAz78NI_h" pages="2">
            <diagram id="diagramid" name="Diagram">
              <mxGraphModel><root><mxCell id="0"/><mxCell id="1" parent="0"/><mxCell id="2" value="LogGroup" style="outlineConnect=0;fontColor=#B3B3B3;gradientColor=#F34482;gradientDirection=north;fillColor=#BC1356;strokeColor=#ffffff;dashed=0;verticalLabelPosition=bottom;verticalAlign=top;align=center;html=1;fontSize=12;fontStyle=0;aspect=fixed;shape=mxgraph.aws4.resourceIcon;resIcon=mxgraph.aws4.cloudwatch;" vertex="1" parent="1"><mxGeometry x="1000" width="50" height="50" as="geometry"/></mxCell><mxCell id="3" value="TaskDefinition" style="outlineConnect=0;fontColor=#B3B3B3;gradientColor=#F78E04;gradientDirection=north;fillColor=#D05C17;strokeColor=#ffffff;dashed=0;verticalLabelPosition=bottom;verticalAlign=top;align=center;html=1;fontSize=12;fontStyle=0;aspect=fixed;shape=mxgraph.aws4.resourceIcon;resIcon=mxgraph.aws4.ecs;" vertex="1" parent="1"><mxGeometry x="750" width="50" height="50" as="geometry"/></mxCell><mxCell id="4" value="ExecutionRole" style="outlineConnect=0;fontColor=#B3B3B3;gradientColor=#F54749;gradientDirection=north;fillColor=#C7131F;strokeColor=#ffffff;dashed=0;verticalLabelPosition=bottom;verticalAlign=top;align=center;html=1;fontSize=12;fontStyle=0;aspect=fixed;shape=mxgraph.aws4.resourceIcon;resIcon=mxgraph.aws4.role;" vertex="1" parent="1"><mxGeometry x="1000" y="100" width="50" height="50" as="geometry"/></mxCell><mxCell id="5" value="TaskRole" style="outlineConnect=0;fontColor=#B3B3B3;gradientColor=#F54749;gradientDirection=north;fillColor=#C7131F;strokeColor=#ffffff;dashed=0;verticalLabelPosition=bottom;verticalAlign=top;align=center;html=1;fontSize=12;fontStyle=0;aspect=fixed;shape=mxgraph.aws4.resourceIcon;resIcon=mxgraph.aws4.role;" vertex="1" parent="1"><mxGeometry x="1000" y="200" width="50" height="50" as="geometry"/></mxCell><mxCell id="6" value="DiscoveryService" style="outlineConnect=0;fontColor=#B3B3B3;gradientColor=#aaaaaa;gradientDirection=north;fillColor=#aaaaaa;strokeColor=#ffffff;dashed=0;verticalLabelPosition=bottom;verticalAlign=top;align=center;html=1;fontSize=12;fontStyle=0;aspect=fixed;shape=mxgraph.aws4.resourceIcon;resIcon=mxgraph.aws4.servicediscovery;" vertex="1" parent="1"><mxGeometry x="750" y="250" width="50" height="50" as="geometry"/></mxCell><mxCell id="7" value="DynamicDesiredCountAction" style="outlineConnect=0;fontColor=#B3B3B3;gradientColor=#aaaaaa;gradientDirection=north;fillColor=#aaaaaa;strokeColor=#ffffff;dashed=0;verticalLabelPosition=bottom;verticalAlign=top;align=center;html=1;fontSize=12;fontStyle=0;aspect=fixed;shape=mxgraph.aws4.resourceIcon;resIcon=mxgraph.aws4.dynamicdesiredcountfunction;" vertex="1" parent="1"><mxGeometry x="750" y="150" width="50" height="50" as="geometry"/></mxCell><mxCell id="8" value="DynamicDesiredCountFunction" style="outlineConnect=0;fontColor=#B3B3B3;gradientColor=#F78E04;gradientDirection=north;fillColor=#D05C17;strokeColor=#ffffff;dashed=0;verticalLabelPosition=bottom;verticalAlign=top;align=center;html=1;fontSize=12;fontStyle=0;aspect=fixed;shape=mxgraph.aws4.resourceIcon;resIcon=mxgraph.aws4.lambda;" vertex="1" parent="1"><mxGeometry x="1000" y="400" width="50" height="50" as="geometry"/></mxCell><mxCell id="9" value="DynamicDesiredCountFunctionRole" style="outlineConnect=0;fontColor=#B3B3B3;gradientColor=#F54749;gradientDirection=north;fillColor=#C7131F;strokeColor=#ffffff;dashed=0;verticalLabelPosition=bottom;verticalAlign=top;align=center;html=1;fontSize=12;fontStyle=0;aspect=fixed;shape=mxgraph.aws4.resourceIcon;resIcon=mxgraph.aws4.role;" vertex="1" parent="1"><mxGeometry x="1250" y="389.4675925925926" width="50" height="50" as="geometry"/></mxCell><mxCell id="10" value="AutoScalingRole" style="outlineConnect=0;fontColor=#B3B3B3;gradientColor=#F54749;gradientDirection=north;fillColor=#C7131F;strokeColor=#ffffff;dashed=0;verticalLabelPosition=bottom;verticalAlign=top;align=center;html=1;fontSize=12;fontStyle=0;aspect=fixed;shape=mxgraph.aws4.resourceIcon;resIcon=mxgraph.aws4.role;" vertex="1" parent="1"><mxGeometry x="500" y="291.1875" width="50" height="50" as="geometry"/></mxCell><mxCell id="11" value="AutoScalingTarget" style="outlineConnect=0;fontColor=#B3B3B3;gradientColor=#aaaaaa;gradientDirection=north;fillColor=#aaaaaa;strokeColor=#ffffff;dashed=0;verticalLabelPosition=bottom;verticalAlign=top;align=center;html=1;fontSize=12;fontStyle=0;aspect=fixed;shape=mxgraph.aws4.resourceIcon;resIcon=mxgraph.aws4.applicationautoscaling;" vertex="1" parent="1"><mxGeometry x="250" y="232.375" width="50" height="50" as="geometry"/></mxCell><mxCell id="12" value="AutoScalingPolicyECSServiceAverageCPUUtilization" style="outlineConnect=0;fontColor=#B3B3B3;gradientColor=#aaaaaa;gradientDirection=north;fillColor=#aaaaaa;strokeColor=#ffffff;dashed=0;verticalLabelPosition=bottom;verticalAlign=top;align=center;html=1;fontSize=12;fontStyle=0;aspect=fixed;shape=mxgraph.aws4.resourceIcon;resIcon=mxgraph.aws4.applicationautoscaling;" vertex="1" parent="1"><mxGeometry y="200" width="50" height="50" as="geometry"/></mxCell><mxCell id="13" value="AutoScalingPolicyECSServiceAverageMemoryUtilization" style="outlineConnect=0;fontColor=#B3B3B3;gradientColor=#aaaaaa;gradientDirection=north;fillColor=#aaaaaa;strokeColor=#ffffff;dashed=0;verticalLabelPosition=bottom;verticalAlign=top;align=center;html=1;fontSize=12;fontStyle=0;aspect=fixed;shape=mxgraph.aws4.resourceIcon;resIcon=mxgraph.aws4.applicationautoscaling;" vertex="1" parent="1"><mxGeometry y="300" width="50" height="50" as="geometry"/></mxCell><mxCell id="14" value="Service" style="outlineConnect=0;fontColor=#B3B3B3;gradientColor=#F78E04;gradientDirection=north;fillColor=#D05C17;strokeColor=#ffffff;dashed=0;verticalLabelPosition=bottom;verticalAlign=top;align=center;html=1;fontSize=12;fontStyle=0;aspect=fixed;shape=mxgraph.aws4.resourceIcon;resIcon=mxgraph.aws4.ecs;" vertex="1" parent="1"><mxGeometry x="500" y="137" width="50" height="50" as="geometry"/></mxCell><mxCell id="15" value="AddonsStack" style="outlineConnect=0;fontColor=#B3B3B3;gradientColor=#F34482;gradientDirection=north;fillColor=#BC1356;strokeColor=#ffffff;dashed=0;verticalLabelPosition=bottom;verticalAlign=top;align=center;html=1;fontSize=12;fontStyle=0;aspect=fixed;shape=mxgraph.aws4.resourceIcon;resIcon=mxgraph.aws4.cloudformation;" vertex="1" parent="1"><mxGeometry x="1000" y="300" width="50" height="50" as="geometry"/></mxCell><mxCell id="16" value="EnvControllerAction" style="outlineConnect=0;fontColor=#B3B3B3;gradientColor=#aaaaaa;gradientDirection=north;fillColor=#aaaaaa;strokeColor=#ffffff;dashed=0;verticalLabelPosition=bottom;verticalAlign=top;align=center;html=1;fontSize=12;fontStyle=0;aspect=fixed;shape=mxgraph.aws4.resourceIcon;resIcon=mxgraph.aws4.envcontrollerfunction;" vertex="1" parent="1"><mxGeometry y="547.3922967910767" width="50" height="50" as="geometry"/></mxCell><mxCell id="17" value="EnvControllerFunction" style="outlineConnect=0;fontColor=#B3B3B3;gradientColor=#F78E04;gradientDirection=north;fillColor=#D05C17;strokeColor=#ffffff;dashed=0;verticalLabelPosition=bottom;verticalAlign=top;align=center;html=1;fontSize=12;fontStyle=0;aspect=fixed;shape=mxgraph.aws4.resourceIcon;resIcon=mxgraph.aws4.lambda;" vertex="1" parent="1"><mxGeometry x="250" y="547.3922967910767" width="50" height="50" as="geometry"/></mxCell><mxCell id="18" value="EnvControllerRole" style="outlineConnect=0;fontColor=#B3B3B3;gradientColor=#F54749;gradientDirection=north;fillColor=#C7131F;strokeColor=#ffffff;dashed=0;verticalLabelPosition=bottom;verticalAlign=top;align=center;html=1;fontSize=12;fontStyle=0;aspect=fixed;shape=mxgraph.aws4.resourceIcon;resIcon=mxgraph.aws4.role;" vertex="1" parent="1"><mxGeometry x="500" y="548.9569187164307" width="50" height="50" as="geometry"/></mxCell><mxCell id="19" value="iam  aws&#xA;policy/service-role/amazonecstaskexecutionrolepolicy" style="outlineConnect=0;fontColor=#B3B3B3;gradientColor=#aaaaaa;gradientDirection=north;fillColor=#aaaaaa;strokeColor=#ffffff;dashed=0;verticalLabelPosition=bottom;verticalAlign=top;align=center;html=1;fontSize=12;fontStyle=0;aspect=fixed;shape=mxgraph.aws4.resourceIcon;resIcon=mxgraph.aws4.identity_and_access_management;" vertex="1" parent="1"><mxGeometry x="1250" y="100" width="50" height="50" as="geometry"/></mxCell><mxCell id="20" value="iam  &#xA;role/*" style="outlineConnect=0;fontColor=#B3B3B3;gradientColor=#aaaaaa;gradientDirection=north;fillColor=#aaaaaa;strokeColor=#ffffff;dashed=0;verticalLabelPosition=bottom;verticalAlign=top;align=center;html=1;fontSize=12;fontStyle=0;aspect=fixed;shape=mxgraph.aws4.resourceIcon;resIcon=mxgraph.aws4.identity_and_access_management;" vertex="1" parent="1"><mxGeometry x="1250" y="200" width="50" height="50" as="geometry"/></mxCell><mxCell id="21" value="iam  aws&#xA;policy/service-role/awslambdabasicexecutionrole" style="outlineConnect=0;fontColor=#B3B3B3;gradientColor=#aaaaaa;gradientDirection=north;fillColor=#aaaaaa;strokeColor=#ffffff;dashed=0;verticalLabelPosition=bottom;verticalAlign=top;align=center;html=1;fontSize=12;fontStyle=0;aspect=fixed;shape=mxgraph.aws4.resourceIcon;resIcon=mxgraph.aws4.identity_and_access_management;" vertex="1" parent="1"><mxGeometry x="1500" y="435.3587962962963" width="50" height="50" as="geometry"/></mxCell><mxCell id="22" value="ecs  &#xA;cluster/${clustername}" style="outlineConnect=0;fontColor=#B3B3B3;gradientColor=#aaaaaa;gradientDirection=north;fillColor=#aaaaaa;strokeColor=#ffffff;dashed=0;verticalLabelPosition=bottom;verticalAlign=top;align=center;html=1;fontSize=12;fontStyle=0;aspect=fixed;shape=mxgraph.aws4.resourceIcon;resIcon=mxgraph.aws4.ecs;" vertex="1" parent="1"><mxGeometry x="1500" y="335.3587962962963" width="50" height="50" as="geometry"/></mxCell><mxCell id="23" value="iam  aws&#xA;policy/service-role/amazonec2containerserviceautoscalerole" style="outlineConnect=0;fontColor=#B3B3B3;gradientColor=#aaaaaa;gradientDirection=north;fillColor=#aaaaaa;strokeColor=#ffffff;dashed=0;verticalLabelPosition=bottom;verticalAlign=top;align=center;html=1;fontSize=12;fontStyle=0;aspect=fixed;shape=mxgraph.aws4.resourceIcon;resIcon=mxgraph.aws4.identity_and_access_management;" vertex="1" parent="1"><mxGeometry x="750" y="350" width="50" height="50" as="geometry"/></mxCell><mxCell id="24" value="cloudformation  &#xA;stack/${appname}-${envname}/*" style="outlineConnect=0;fontColor=#B3B3B3;gradientColor=#aaaaaa;gradientDirection=north;fillColor=#aaaaaa;strokeColor=#ffffff;dashed=0;verticalLabelPosition=bottom;verticalAlign=top;align=center;html=1;fontSize=12;fontStyle=0;aspect=fixed;shape=mxgraph.aws4.resourceIcon;resIcon=mxgraph.aws4.cloudformation;" vertex="1" parent="1"><mxGeometry x="750" y="450" width="50" height="50" as="geometry"/></mxCell><mxCell id="25" value="iam  &#xA;role/${appname}-${envname}-cfnexecutionrole" style="outlineConnect=0;fontColor=#B3B3B3;gradientColor=#aaaaaa;gradientDirection=north;fillColor=#aaaaaa;strokeColor=#ffffff;dashed=0;verticalLabelPosition=bottom;verticalAlign=top;align=center;html=1;fontSize=12;fontStyle=0;aspect=fixed;shape=mxgraph.aws4.resourceIcon;resIcon=mxgraph.aws4.identity_and_access_management;" vertex="1" parent="1"><mxGeometry x="750" y="550" width="50" height="50" as="geometry"/></mxCell><mxCell id="LogGroup|TaskDefinition" value="awslogs-group" style="edgeStyle=orthogonalEdgeStyle;rounded=1;orthogonalLoop=1;jettySize=auto;html=1;labelBackgroundColor=none;fontColor=#EA6B66;noEdgeStyle=1;orthogonal=1;" edge="1" parent="1" source="3" target="2"><mxGeometry relative="1" as="geometry"><Array as="points"><mxPoint x="812" y="10"/><mxPoint x="988" y="25"/></Array></mxGeometry></mxCell><mxCell id="ExecutionRole|TaskDefinition" value="ExecutionRoleArn" style="edgeStyle=orthogonalEdgeStyle;rounded=1;orthogonalLoop=1;jettySize=auto;html=1;labelBackgroundColor=none;fontColor=#EA6B66;noEdgeStyle=1;orthogonal=1;" edge="1" parent="1" source="3" target="4"><mxGeometry relative="1" as="geometry"><Array as="points"><mxPoint x="814" y="20"/><mxPoint x="988" y="125"/></Array></mxGeometry></mxCell><mxCell id="TaskRole|TaskDefinition" value="TaskRoleArn" style="edgeStyle=orthogonalEdgeStyle;rounded=1;orthogonalLoop=1;jettySize=auto;html=1;labelBackgroundColor=none;fontColor=#EA6B66;noEdgeStyle=1;orthogonal=1;" edge="1" parent="1" source="3" target="5"><mxGeometry relative="1" as="geometry"><Array as="points"><mxPoint x="814" y="30"/><mxPoint x="988" y="225"/></Array></mxGeometry></mxCell><mxCell id="AddonsStack|TaskDefinition" value="ValueFrom" style="edgeStyle=orthogonalEdgeStyle;rounded=1;orthogonalLoop=1;jettySize=auto;html=1;labelBackgroundColor=none;fontColor=#EA6B66;noEdgeStyle=1;orthogonal=1;" edge="1" parent="1" source="3" target="15"><mxGeometry relative="1" as="geometry"><Array as="points"><mxPoint x="812" y="40"/><mxPoint x="988" y="315"/></Array></mxGeometry></mxCell><mxCell id="iam  aws&#xA;policy/service-role/amazonecstaskexecutionrolepolicy|ExecutionRole" value="ManagedPolicyArns" style="edgeStyle=orthogonalEdgeStyle;rounded=1;orthogonalLoop=1;jettySize=auto;html=1;labelBackgroundColor=none;fontColor=#EA6B66;noEdgeStyle=1;orthogonal=1;" edge="1" parent="1" source="4" target="19"><mxGeometry relative="1" as="geometry"><Array as="points"><mxPoint x="1062" y="125"/><mxPoint x="1238" y="125"/></Array></mxGeometry></mxCell><mxCell id="iam  &#xA;role/*|TaskRole" value="PolicyDocument" style="edgeStyle=orthogonalEdgeStyle;rounded=1;orthogonalLoop=1;jettySize=auto;html=1;labelBackgroundColor=none;fontColor=#EA6B66;noEdgeStyle=1;orthogonal=1;" edge="1" parent="1" source="5" target="20"><mxGeometry relative="1" as="geometry"><Array as="points"><mxPoint x="1062" y="225"/><mxPoint x="1238" y="225"/></Array></mxGeometry></mxCell><mxCell id="DynamicDesiredCountFunction|DynamicDesiredCountAction" value="ServiceToken" style="edgeStyle=orthogonalEdgeStyle;rounded=1;orthogonalLoop=1;jettySize=auto;html=1;labelBackgroundColor=none;fontColor=#EA6B66;noEdgeStyle=1;orthogonal=1;" edge="1" parent="1" source="7" target="8"><mxGeometry relative="1" as="geometry"><Array as="points"><mxPoint x="812" y="175"/><mxPoint x="988" y="425"/></Array></mxGeometry></mxCell><mxCell id="DynamicDesiredCountFunctionRole|DynamicDesiredCountFunction" value="Role" style="edgeStyle=orthogonalEdgeStyle;rounded=1;orthogonalLoop=1;jettySize=auto;html=1;labelBackgroundColor=none;fontColor=#EA6B66;noEdgeStyle=1;orthogonal=1;" edge="1" parent="1" source="8" target="9"><mxGeometry relative="1" as="geometry"><Array as="points"><mxPoint x="1062" y="425"/><mxPoint x="1238" y="414.4675925925926"/></Array></mxGeometry></mxCell><mxCell id="iam  aws&#xA;policy/service-role/awslambdabasicexecutionrole|DynamicDesiredCountFunctionRole" value="ManagedPolicyArns" style="edgeStyle=orthogonalEdgeStyle;rounded=1;orthogonalLoop=1;jettySize=auto;html=1;labelBackgroundColor=none;fontColor=#EA6B66;noEdgeStyle=1;orthogonal=1;" edge="1" parent="1" source="9" target="21"><mxGeometry relative="1" as="geometry"><Array as="points"><mxPoint x="1312" y="424.4675925925926"/><mxPoint x="1488" y="450.3587962962963"/></Array></mxGeometry></mxCell><mxCell id="ecs  &#xA;cluster/${clustername}|DynamicDesiredCountFunctionRole" value="PolicyDocument" style="edgeStyle=orthogonalEdgeStyle;rounded=1;orthogonalLoop=1;jettySize=auto;html=1;labelBackgroundColor=none;fontColor=#EA6B66;noEdgeStyle=1;orthogonal=1;" edge="1" parent="1" source="9" target="22"><mxGeometry relative="1" as="geometry"><Array as="points"><mxPoint x="1312" y="404.4675925925926"/><mxPoint x="1488" y="360.3587962962963"/></Array></mxGeometry></mxCell><mxCell id="iam  aws&#xA;policy/service-role/amazonec2containerserviceautoscalerole|AutoScalingRole" value="ManagedPolicyArns" style="edgeStyle=orthogonalEdgeStyle;rounded=1;orthogonalLoop=1;jettySize=auto;html=1;labelBackgroundColor=none;fontColor=#EA6B66;noEdgeStyle=1;orthogonal=1;" edge="1" parent="1" source="10" target="23"><mxGeometry relative="1" as="geometry"><Array as="points"><mxPoint x="562" y="316.1875"/><mxPoint x="738" y="375"/></Array></mxGeometry></mxCell><mxCell id="Service|AutoScalingTarget" value="ResourceId" style="edgeStyle=orthogonalEdgeStyle;rounded=1;orthogonalLoop=1;jettySize=auto;html=1;labelBackgroundColor=none;fontColor=#EA6B66;noEdgeStyle=1;orthogonal=1;" edge="1" parent="1" source="11" target="14"><mxGeometry relative="1" as="geometry"><Array as="points"><mxPoint x="312" y="247.375"/><mxPoint x="488" y="162"/></Array></mxGeometry></mxCell><mxCell id="AutoScalingRole|AutoScalingTarget" value="RoleARN" style="edgeStyle=orthogonalEdgeStyle;rounded=1;orthogonalLoop=1;jettySize=auto;html=1;labelBackgroundColor=none;fontColor=#EA6B66;noEdgeStyle=1;orthogonal=1;" edge="1" parent="1" source="11" target="10"><mxGeometry relative="1" as="geometry"><Array as="points"><mxPoint x="312" y="267.375"/><mxPoint x="488" y="316.1875"/></Array></mxGeometry></mxCell><mxCell id="AutoScalingTarget|AutoScalingPolicyECSServiceAverageCPUUtilization" value="ScalingTargetId" style="edgeStyle=orthogonalEdgeStyle;rounded=1;orthogonalLoop=1;jettySize=auto;html=1;labelBackgroundColor=none;fontColor=#EA6B66;noEdgeStyle=1;orthogonal=1;" edge="1" parent="1" source="12" target="11"><mxGeometry relative="1" as="geometry"><Array as="points"><mxPoint x="62" y="225"/><mxPoint x="238" y="247.375"/></Array></mxGeometry></mxCell><mxCell id="AutoScalingTarget|AutoScalingPolicyECSServiceAverageMemoryUtilization" value="ScalingTargetId" style="edgeStyle=orthogonalEdgeStyle;rounded=1;orthogonalLoop=1;jettySize=auto;html=1;labelBackgroundColor=none;fontColor=#EA6B66;noEdgeStyle=1;orthogonal=1;" edge="1" parent="1" source="13" target="11"><mxGeometry relative="1" as="geometry"><Array as="points"><mxPoint x="62" y="325"/><mxPoint x="238" y="267.375"/></Array></mxGeometry></mxCell><mxCell id="TaskDefinition|Service" value="TaskDefinition" style="edgeStyle=orthogonalEdgeStyle;rounded=1;orthogonalLoop=1;jettySize=auto;html=1;labelBackgroundColor=none;fontColor=#EA6B66;noEdgeStyle=1;orthogonal=1;" edge="1" parent="1" source="14" target="3"><mxGeometry relative="1" as="geometry"><Array as="points"><mxPoint x="562" y="147"/><mxPoint x="738" y="25"/></Array></mxGeometry></mxCell><mxCell id="DynamicDesiredCountAction|Service" value="DesiredCount" style="edgeStyle=orthogonalEdgeStyle;rounded=1;orthogonalLoop=1;jettySize=auto;html=1;labelBackgroundColor=none;fontColor=#EA6B66;noEdgeStyle=1;orthogonal=1;" edge="1" parent="1" source="14" target="7"><mxGeometry relative="1" as="geometry"><Array as="points"><mxPoint x="564" y="167"/><mxPoint x="738" y="175"/></Array></mxGeometry></mxCell><mxCell id="AddonsStack|Service" value="SecurityGroups" style="edgeStyle=orthogonalEdgeStyle;rounded=1;orthogonalLoop=1;jettySize=auto;html=1;labelBackgroundColor=none;fontColor=#EA6B66;noEdgeStyle=1;orthogonal=1;" edge="1" parent="1" source="14" target="15"><mxGeometry relative="1" as="geometry"><Array as="points"><mxPoint x="564" y="157"/><mxPoint x="650" y="100"/><mxPoint x="900" y="100"/><mxPoint x="988" y="335"/></Array></mxGeometry></mxCell><mxCell id="DiscoveryService|Service" value="ServiceRegistries" style="edgeStyle=orthogonalEdgeStyle;rounded=1;orthogonalLoop=1;jettySize=auto;html=1;labelBackgroundColor=none;fontColor=#EA6B66;noEdgeStyle=1;orthogonal=1;" edge="1" parent="1" source="14" target="6"><mxGeometry relative="1" as="geometry"><Array as="points"><mxPoint x="562" y="177"/><mxPoint x="738" y="275"/></Array></mxGeometry></mxCell><mxCell id="EnvControllerFunction|EnvControllerAction" value="ServiceToken" style="edgeStyle=orthogonalEdgeStyle;rounded=1;orthogonalLoop=1;jettySize=auto;html=1;labelBackgroundColor=none;fontColor=#EA6B66;noEdgeStyle=1;orthogonal=1;" edge="1" parent="1" source="16" target="17"><mxGeometry relative="1" as="geometry"><Array as="points"><mxPoint x="62" y="572.3922967910767"/><mxPoint x="238" y="572.3922967910767"/></Array></mxGeometry></mxCell><mxCell id="EnvControllerRole|EnvControllerFunction" value="Role" style="edgeStyle=orthogonalEdgeStyle;rounded=1;orthogonalLoop=1;jettySize=auto;html=1;labelBackgroundColor=none;fontColor=#EA6B66;noEdgeStyle=1;orthogonal=1;" edge="1" parent="1" source="17" target="18"><mxGeometry relative="1" as="geometry"><Array as="points"><mxPoint x="312" y="572.3922967910767"/><mxPoint x="488" y="573.9569187164307"/></Array></mxGeometry></mxCell><mxCell id="cloudformation  &#xA;stack/${appname}-${envname}/*|EnvControllerRole" value="PolicyDocument" style="edgeStyle=orthogonalEdgeStyle;rounded=1;orthogonalLoop=1;jettySize=auto;html=1;labelBackgroundColor=none;fontColor=#EA6B66;noEdgeStyle=1;orthogonal=1;" edge="1" parent="1" source="18" target="24"><mxGeometry relative="1" as="geometry"><Array as="points"><mxPoint x="562" y="560.6235853830973"/><mxPoint x="738" y="475"/></Array></mxGeometry></mxCell><mxCell id="iam  &#xA;role/${appname}-${envname}-cfnexecutionrole|EnvControllerRole" value="PolicyDocument" style="edgeStyle=orthogonalEdgeStyle;rounded=1;orthogonalLoop=1;jettySize=auto;html=1;labelBackgroundColor=none;fontColor=#EA6B66;noEdgeStyle=1;orthogonal=1;" edge="1" parent="1" source="18" target="25"><mxGeometry relative="1" as="geometry"><Array as="points"><mxPoint x="564" y="573.9569187164307"/><mxPoint x="738" y="575"/></Array></mxGeometry></mxCell><mxCell id="iam  aws&#xA;policy/service-role/awslambdabasicexecutionrole|EnvControllerRole" value="ManagedPolicyArns" style="edgeStyle=orthogonalEdgeStyle;rounded=1;orthogonalLoop=1;jettySize=auto;html=1;labelBackgroundColor=none;fontColor=#EA6B66;noEdgeStyle=1;orthogonal=1;" edge="1" parent="1" source="18" target="21"><mxGeometry relative="1" as="geometry"><Array as="points"><mxPoint x="562" y="587.290252049764"/><mxPoint x="650" y="650"/><mxPoint x="900" y="650"/><mxPoint x="900" y="650"/><mxPoint x="1150" y="650"/><mxPoint x="1150" y="650"/><mxPoint x="1400" y="650"/><mxPoint x="1488" y="470.3587962962963"/></Array></mxGeometry></mxCell></root></mxGraphModel>
            </diagram>
          </mxfile>